<?xml version="1.0" standalone="no"?>
<!DOCTYPE svg PUBLIC "-//W3C//DTD SVG 20010904//EN"
 "http://www.w3.org/TR/2001/REC-SVG-20010904/DTD/svg10.dtd">
<svg version="1.0" xmlns="http://www.w3.org/2000/svg"
 width="200.000000pt" height="200.000000pt" viewBox="0 0 200.000000 200.000000"
 preserveAspectRatio="xMidYMid meet">
<metadata>
Created by potrace 1.11, written by Peter Selinger 2001-2013
</metadata>
<g transform="translate(0.000000,200.000000) scale(0.100000,-0.100000)"
fill="#000000" stroke="none">
<path d="M945 1992 c-16 -2 -48 -8 -70 -14 -22 -5 -41 -10 -43 -9 -6 3 -120
-60 -142 -78 -65 -56 -112 -107 -145 -157 l-36 -54 -105 0 -104 0 0 -315 c0
-196 -4 -315 -10 -315 -15 0 -133 -122 -169 -174 -77 -112 -115 -234 -114
-367 2 -156 46 -271 138 -361 90 -88 254 -148 390 -143 204 9 433 102 594 244
27 23 39 28 52 20 34 -18 179 -9 179 12 0 5 -16 34 -37 66 -20 31 -36 62 -36
68 0 5 23 48 51 93 38 62 61 89 88 102 88 45 113 160 51 232 -44 50 -100 65
-157 42 -82 -35 -115 -133 -71 -216 l20 -36 -32 -50 -32 -51 -80 126 c-44 69
-81 130 -83 134 -2 4 19 19 47 33 93 48 195 177 216 274 3 17 8 32 10 32 8 0
87 -35 150 -66 185 -91 328 -248 391 -429 11 -31 18 -82 18 -135 1 -72 -3 -94
-27 -143 -91 -198 -256 -267 -503 -213 -11 2 -37 11 -59 20 -39 17 -48 14 -85
-24 -3 -3 -19 -17 -37 -32 l-32 -26 47 -20 c296 -127 619 -41 762 204 59 101
70 224 35 394 -5 26 -34 95 -58 140 -108 202 -334 383 -563 450 -41 12 -42 13
-47 65 -15 147 -173 315 -322 344 -27 6 -111 13 -185 16 -74 3 -136 7 -138 10
-7 7 32 51 74 84 58 44 112 69 187 84 63 14 72 14 137 2 142 -27 272 -199 314
-418 10 -56 13 -60 50 -72 91 -31 89 -32 82 22 -33 263 -147 457 -326 555 -66
36 -166 58 -235 50z m37 -505 c60 -26 147 -132 148 -182 0 -7 -27 -11 -67 -10
-64 0 -69 2 -106 38 -35 34 -50 40 -109 40 -93 -1 -154 -123 -109 -216 46 -95
168 -106 236 -21 26 32 30 34 91 34 58 0 64 -2 64 -20 0 -56 -92 -176 -152
-199 -15 -5 -110 -9 -220 -8 l-193 2 -14 50 c-19 73 -24 335 -6 415 24 113 2
103 214 98 138 -4 195 -9 223 -21z m-593 -1212 l85 0 3 235 c2 129 6 242 9
250 4 10 18 -10 41 -53 28 -57 33 -74 25 -96 -44 -126 93 -249 202 -181 118
72 83 256 -51 276 -35 5 -47 12 -59 35 l-15 29 108 0 108 0 118 -185 c88 -137
117 -190 112 -205 -3 -11 -11 -20 -16 -20 -5 0 -18 -9 -30 -21 -26 -26 -139
-99 -204 -132 -222 -111 -493 -90 -612 48 -144 167 -125 402 48 600 l34 38 5
-309 5 -309 84 0z"/>
</g>
</svg>
