<?xml version="1.0" standalone="no"?>
<!DOCTYPE svg PUBLIC "-//W3C//DTD SVG 20010904//EN"
 "http://www.w3.org/TR/2001/REC-SVG-20010904/DTD/svg10.dtd">
<svg version="1.0" xmlns="http://www.w3.org/2000/svg"
 width="260.000000pt" height="260.000000pt" viewBox="0 0 260.000000 260.000000"
 preserveAspectRatio="xMidYMid meet">
<metadata>
Created by potrace 1.11, written by Peter Selinger 2001-2013
</metadata>
<g transform="translate(0.000000,260.000000) scale(0.100000,-0.100000)"
fill="#000000" stroke="none">
<path d="M1160 2479 c0 -64 6 -66 152 -68 203 -1 300 -22 463 -100 55 -26 127
-65 160 -86 61 -38 285 -255 285 -275 0 -6 11 -26 24 -43 57 -76 124 -233 154
-362 20 -88 23 -372 4 -460 -31 -141 -98 -297 -176 -410 -53 -76 -205 -228
-281 -281 -116 -80 -295 -157 -401 -170 -27 -4 -57 -11 -67 -16 -9 -5 -80 -9
-157 -9 -129 0 -141 -2 -151 -20 -5 -11 -9 -32 -7 -47 l3 -27 130 -3 c158 -4
261 10 380 50 124 41 294 130 379 198 87 70 210 199 261 275 92 140 173 339
194 482 14 89 14 305 1 396 -23 154 -113 374 -207 499 -21 28 -48 65 -59 82
-58 84 -242 229 -374 296 -199 99 -333 130 -571 130 l-139 0 0 -31z"/>
<path d="M784 2396 c-61 -29 -114 -58 -118 -65 -11 -17 32 -81 54 -81 10 0 22
5 25 10 8 13 120 70 138 70 7 0 21 6 31 13 17 12 17 18 6 53 -7 21 -15 42 -19
46 -3 4 -56 -17 -117 -46z"/>
<path d="M399 2108 c-48 -57 -119 -152 -119 -161 0 -6 68 -47 78 -47 4 0 30
30 57 66 28 36 60 78 73 94 12 15 22 32 22 37 0 9 -52 63 -61 63 -3 0 -25 -24
-50 -52z"/>
<path d="M1493 2040 c-91 -21 -204 -99 -273 -188 -33 -43 -35 -44 -41 -21 -4
13 -7 59 -8 102 l-1 78 -122 -3 -123 -3 -3 -695 c-1 -382 0 -705 3 -717 5 -22
9 -23 125 -23 l120 0 0 397 c0 413 7 503 48 612 39 106 148 199 272 232 70 19
72 19 152 -1 44 -11 85 -20 89 -20 5 0 9 56 9 124 l0 124 -31 6 c-42 8 -176 6
-216 -4z"/>
<path d="M153 1673 c-19 -48 -43 -158 -43 -206 l0 -38 48 3 47 3 6 50 c4 28
14 74 23 104 23 77 21 84 -25 103 l-40 17 -16 -36z"/>
<path d="M110 1152 c0 -58 37 -217 55 -240 2 -2 22 2 45 8 l42 11 -6 42 c-4
23 -13 60 -21 82 -8 22 -14 59 -15 83 l0 42 -50 0 c-48 0 -50 -1 -50 -28z"/>
<path d="M318 694 c-21 -14 -38 -27 -38 -30 0 -22 152 -203 171 -204 18 0 59
41 59 60 0 7 -25 42 -56 79 -31 36 -61 75 -67 88 -14 32 -27 33 -69 7z"/>
<path d="M682 331 c-12 -17 -19 -36 -17 -44 10 -24 230 -131 239 -115 1 2 9
20 18 40 20 43 20 44 -72 84 -36 15 -77 36 -92 46 -36 25 -51 23 -76 -11z"/>
</g>
</svg>
